<svg height="512" viewBox="0 0 512 512" width="512" xmlns="http://www.w3.org/2000/svg" xmlns:xlink="http://www.w3.org/1999/xlink"><linearGradient id="a" gradientUnits="userSpaceOnUse" x1="17.423" x2="530.998" y1="510.577" y2="-2.998" data-name="New Gradient Swatch 1"><stop offset="0" stop-color="#003f8a"/><stop offset=".518" stop-color="#00d7df"/><stop offset="1" stop-color="#006df0"/></linearGradient><linearGradient id="b" x1="51.423" x2="564.998" xlink:href="#a" y1="544.577" y2="31.002"/><g><path d="m476 104h-138.19l-75.6-93.04a7.994 7.994 0 0 0 -12.42 0l-75.6 93.04h-138.19a28.031 28.031 0 0 0 -28 28v280a28.031 28.031 0 0 0 28 28h160.18l-9.6 24h-42.58a8 8 0 0 0 -8 8v24a8 8 0 0 0 8 8h224a8 8 0 0 0 8-8v-24a8 8 0 0 0 -8-8h-42.58l-9.6-24h160.18a28.031 28.031 0 0 0 28-28v-280a28.031 28.031 0 0 0 -28-28zm-291.83 13.09h.01l71.82-88.4 71.82 88.4h.01l15.36 18.91h-31.19a8 8 0 0 0 -8 8v152h-96v-152a8 8 0 0 0 -8-8h-31.19zm175.83 362.91v8h-208v-8zm-156.18-16 9.6-24h85.16l9.6 24zm284.18-52a12.01 12.01 0 0 1 -12 12h-440a12.01 12.01 0 0 1 -12-12v-20h464zm0-36h-464v-244a12.01 12.01 0 0 1 12-12h125.19l-15.4 18.96a8 8 0 0 0 6.21 13.04h40v152a8 8 0 0 0 8 8h112a8 8 0 0 0 8-8v-152h40a8 8 0 0 0 6.21-13.04l-15.4-18.96h125.19a12.01 12.01 0 0 1 12 12z" fill="url(#a)"/><path d="m200 360h112a8 8 0 0 0 8-8v-24a8 8 0 0 0 -8-8h-112a8 8 0 0 0 -8 8v24a8 8 0 0 0 8 8zm8-24h96v8h-96z" fill="url(#b)"/></g></svg>